<svg xmlns="http://www.w3.org/2000/svg" xmlns:xlink="http://www.w3.org/1999/xlink" viewBox="0 0 867.93 100" aria-labelledby="syracuseLogoTitle syracuseLogoDesc" role="img"><title id="syracuseLogoTitle">syracuse.com logo</title><desc id="syracuseLogoDesc">The SYRACUSE.com blue and orange lettering on a transparent background</desc><defs><style>.cls-1{fill:#fff;}.cls-2{mask:url(#mask);}.cls-3{fill:#fffffe;}.cls-4{mask:url(#mask-2-2);}.cls-5{fill:#ec912d;}</style><mask id="mask" x="0" y="0.28" width="156.58" height="99.58" maskUnits="userSpaceOnUse"><g id="mask-2"><polygon id="path-1" class="cls-1" points="0 0.28 156.58 0.28 156.58 99.85 0 99.85 0 0.28"/></g></mask><mask id="mask-2-2" x="0" y="0.28" width="156.58" height="99.72" maskUnits="userSpaceOnUse"><g id="mask-2-3" data-name="mask-2"><polygon id="path-1-2" data-name="path-1" class="cls-1" points="0 0.28 156.58 0.28 156.58 99.85 0 99.85 0 0.28"/></g></mask></defs><g id="Layer_2" data-name="Layer 2"><g id="Layer_1-2" data-name="Layer 1"><g id="syracuse_reverse" data-name="syracuse reverse"><g id="syracuse.com_reverse_rgb-_1_" data-name="syracuse.com_reverse_rgb-(1)"><g id="Group-4"><g class="cls-2"><path id="Fill-1" class="cls-3" d="M69.49,49.1q0,12.48-11.24,18.3Q49.66,72,35.36,72,23.86,72,6.1,67.54L0,66,7.49,47.16,13.73,49a78.42,78.42,0,0,0,21.63,3.32q7.77,0,7.77-3.19,0-2.09-10.27-3.6-13-2.09-18.85-5.13Q3.75,34.82,3.74,23.44,3.74,1,35.78,1a139.69,139.69,0,0,1,21.5,1.8L68,4.44,63.1,23.86,53.53,22.2a105.68,105.68,0,0,0-16.65-1.95c-3.79,0-6,.42-6.5,1.25a2.59,2.59,0,0,0-.29,1.25q0,1.38,10.27,2.91Q53,27.48,59.22,31.07q10.26,6,10.27,18"/></g><g class="cls-4"><path id="Fill-3" class="cls-3" d="M156.58,8.18,120.66,84.07A26.53,26.53,0,0,1,109,96.26a34.16,34.16,0,0,1-16,3.74q-10.69,0-23.3-6.8l-5.69-3,14-17.61,3.19,1.8q7.91,4.44,11,4.44,3.33,0,6.24-6.94l2.36-5.68-4.43-8L71.7,7.64,96.52.28l15.12,34.4,2.64,10.12,2.77-10.09L132.3.28l24.28,7.9"/></g></g><path id="Fill-5" class="cls-3" d="M220.24,22.75a137.76,137.76,0,0,0-23.3,1.65V69.63H170.59V24l-9.82-10.53L182.37,0,190,8.19q10-5.44,29.12-6.94l1.11,21.5"/><path id="Fill-6" class="cls-3" d="M267,49.38V43.69l-11,.42q-8.52.28-8.52,5.54,0,3.62,4.44,3.61a20.24,20.24,0,0,0,6.1-1ZM303.18,59,281.52,72.33,273,63.22,265,66.56Q254.26,71,247,71a24.22,24.22,0,0,1-17.64-6.94,20.58,20.58,0,0,1-6.53-15,17.61,17.61,0,0,1,6.52-14Q236.61,29,249.5,29h17.06V22.05c0-.55-.7-.82-2.1-.82a230.47,230.47,0,0,0-24.25,1.91l-9.3,1.09L226.06,4.44l13.73-1.8A179.71,179.71,0,0,1,262.12.83q11.5,0,19.56,3.61,10.68,4.85,10.95,14.7l.7,29.26Z"/><path id="Fill-7" class="cls-3" d="M376.69,64.64l-15.12,4.57a60.15,60.15,0,0,1-17.47,2.63q-16.38,0-26.64-8.46Q306,54,306,37,306,.83,343.12.83a119.26,119.26,0,0,1,19.7,1.81l9.84,1.66L368.78,24l-7.35-1a170.58,170.58,0,0,0-18.58-1.79c-3.88,0-6.52.82-7.91,2.48Q332.3,27,332.3,36.55q0,14.91,12.21,14.91,5.26,0,15.52-3.23l8.61-2.75,8.05,19.16"/><path id="Fill-8" class="cls-3" d="M463.23,59.51,441.74,72.82,434,64.62l-8.61,4.17a35.91,35.91,0,0,1-15.82,3.61,28.61,28.61,0,0,1-17.75-5.55,20,20,0,0,1-8.19-16.78V3.19H410v47.3q0,1.8,3.33,1.8a43.26,43.26,0,0,0,8.46-1.11L427,50.07V3.19h26.35V48.83l9.85,10.68"/><path id="Fill-9" class="cls-3" d="M532.71,49.1q0,12.48-11.23,18.3Q512.89,72,498.59,72q-11.5,0-29.26-4.45L463.23,66l7.49-18.86L477,49a78.42,78.42,0,0,0,21.63,3.32q7.77,0,7.77-3.19,0-2.09-10.26-3.6-13-2.09-18.86-5.13Q467,34.82,467,23.44,467,1,499,1a139.69,139.69,0,0,1,21.5,1.8l10.68,1.67-4.86,19.42-9.57-1.66a105.71,105.71,0,0,0-16.64-1.95c-3.8,0-6,.42-6.52,1.25a2.83,2.83,0,0,0-.28,1.25q0,1.38,10.27,2.91,12.62,1.82,18.86,5.41,10.27,6,10.26,18"/><path id="Fill-10" class="cls-3" d="M746.71,37.59q0-14.28-3.76-20.53Q738.47,9.71,727,9.71c-7.55,0-12.75,2.4-15.65,7.21q-3.63,6.25-3.63,20.67,0,13.17,4.19,19.14,4.47,6.51,15.09,6.52,10.89,0,15.5-6.52Q746.72,50.78,746.71,37.59Zm11.38,0q0,34.53-31.07,34.54-30.66,0-30.65-34.54,0-16.65,5.13-25.1Q708.7.83,727,.83t25.8,11.66Q758.09,20.94,758.09,37.59Z"/><path id="Fill-11" class="cls-3" d="M867.93,69.63H856.42v-51q0-8.67-7-8.67a18.16,18.16,0,0,0-5.52,1L828,16V69.63H816.47v-51q0-8.67-6.93-8.67A18.33,18.33,0,0,0,804,11L788,16V69.63h-11.5V16.78L771,6.11l9.9-5.3,4.49,8.63,15-6.18a28.51,28.51,0,0,1,11-2.43q10.39,0,14.56,8.33l14.43-5.91A29.19,29.19,0,0,1,851.15.83q7.33,0,11.78,4.29,5,4.83,5,13.54v51"/><path id="Fill-12" class="cls-3" d="M575.29,19.14q9.57,0,10.82,7.63l-20.67.83Q566.42,19.14,575.29,19.14Zm22.78,38.68a19.59,19.59,0,0,1,3.67-11.39l-5.39,1.79q-12.61,4.37-18.85,4.35-9.42,0-11.64-10.12l37.94,1.47a19.65,19.65,0,0,1,4.85-3.46c.32-5.45.48-8.75.48-9.66q0-12.9-7.63-20.53-9-9-27.18-9-21.93,0-30.1,12.48-5.28,8-5.27,23.3,0,17.34,11.65,26.5,10.26,8.32,26.63,8.31a65.88,65.88,0,0,0,20.94-3.46l2.55-.86A19.46,19.46,0,0,1,598.07,57.82Z"/><path id="Fill-13" class="cls-5" d="M629.21,57.82a11.44,11.44,0,1,1-11.44-11.45,11.43,11.43,0,0,1,11.44,11.45"/><path id="Fill-14" class="cls-3" d="M684.58,57.71l-12.19,3.76a34.89,34.89,0,0,1-9.72,1.36q-19,0-19-25.66v-.56q0-15.1,4.72-21.21,4.15-5.26,13.73-5.27a78,78,0,0,1,9,.63l12.19,1.9,1.39-9-9.85-1.52a84.77,84.77,0,0,0-13-1.12Q647,1,639.78,9q-7.63,8.6-7.63,27.59v.56a55.82,55.82,0,0,0,.58,8,19.55,19.55,0,0,1,4.74,12.68c0,.28-.08.55-.09.83a31.23,31.23,0,0,0,2.4,3.63q7.9,9.7,22.47,9.71a53.83,53.83,0,0,0,14.69-2.22l10.82-3.47-3.18-8.59"/></g></g></g></g></svg>